Coordinates
version=1
nRows=22
nColumns=26
inDegrees=yes

Units are S.I. units (second, meters, Newtons, ...)
If the header above contains a line with 'inDegrees', this indicates whether rotational values are in degrees (yes) or radians (no).

endheader
time	pelvis_tilt	pelvis_list	pelvis_rotation	pelvis_tx	pelvis_ty	pelvis_tz	hip_flexion_r	hip_adduction_r	hip_rotation_r	knee_angle_r	knee_angle_r_beta	hip_flexion_l	hip_adduction_l	hip_rotation_l	knee_angle_l	knee_angle_l_beta	lumbar_extension	lumbar_bending	lumbar_rotation	ankle_angle_r	subtalar_angle_r	mtp_angle_r	ankle_angle_l	subtalar_angle_l	mtp_angle_l
      1.07333333	    -10.93568605	      9.35650861	      8.69166966	     -1.12141298	      0.79445684	      0.38026693	     40.28711803	    -12.23865971	      3.63205790	     15.90913973	      0.27766687	     -3.11029433	      8.25632628	      7.52688361	     20.56988851	      0.35901228	     -3.13124207	    -17.05227096	    -12.08328624	      1.18998495	     -8.37967253	      0.00000000	      9.76610145	     -5.33543672	      0.00000000
      1.08000000	    -10.76814061	      9.21204083	      8.67294448	     -1.11170226	      0.79389539	      0.38089816	     40.25813625	    -11.91390324	      3.91042799	     16.92517333	      0.29540000	     -3.62273648	      7.94977317	      7.53493236	     21.12910393	      0.36877243	     -3.13043611	    -16.74820948	    -12.11088807	      0.85242338	     -8.43527724	      0.00000000	      9.28349709	     -5.19245214	      0.00000000
      1.08666667	    -10.46053905	      9.05075133	      8.59660695	     -1.10200909	      0.79331034	      0.38154629	     40.33692239	    -11.59744675	      3.65564298	     18.55666211	      0.32387485	     -4.03432427	      7.53156711	      6.75196432	     22.09723822	      0.38566956	     -3.31888694	    -16.36554066	    -11.96620826	      0.19780888	     -8.89654837	      0.00000000	      8.38660391	     -5.15915988	      0.00000000
      1.09333333	    -10.46736975	      8.73690782	      8.54656169	     -1.09227514	      0.79252676	      0.38232951	     40.56363382	    -11.05705150	      3.91330432	     19.94846638	      0.34816642	     -4.04680498	      7.05357011	      6.37049475	     23.17202373	      0.40442811	     -3.05881761	    -15.91838395	    -11.91639535	     -0.86672143	    -10.09685555	      0.00000000	      7.47078814	     -5.45266996	      0.00000000
      1.10000000	    -10.18041325	      8.47691370	      8.47107735	     -1.08251401	      0.79206271	      0.38316330	     40.54324346	    -10.58216763	      3.97154493	     21.59591836	      0.37691988	     -4.32694324	      6.56000306	      5.87676840	     24.29141306	      0.42396514	     -3.18966178	    -15.50804422	    -11.88251376	     -1.31155630	    -10.36131093	      0.00000000	      6.59824705	     -5.38387818	      0.00000000
      1.10666667	     -9.96459226	      8.11736766	      8.40928699	     -1.07271944	      0.79155219	      0.38390014	     40.53486010	    -10.01869031	      4.02763253	     23.20118885	      0.40493714	     -4.39235380	      5.97786592	      5.30689752	     25.63366610	      0.44739187	     -3.19762227	    -14.96705457	    -11.82117589	     -1.76264570	    -10.79373490	      0.00000000	      5.56456939	     -5.43887073	      0.00000000
      1.11333333	     -9.74340685	      7.71276500	      8.37741652	     -1.06301523	      0.79109994	      0.38463686	     40.49563288	     -9.40648116	      4.18709229	     24.83914154	      0.43352480	     -4.36920752	      5.33784724	      4.75454961	     27.08453255	      0.47271427	     -3.24699950	    -14.34370421	    -11.79319939	     -2.14592756	    -11.21471732	      0.00000000	      4.45414660	     -5.50920290	      0.00000000
      1.12000000	    -10.00951710	      7.03061345	      8.50082339	     -1.05345005	      0.79016365	      0.38533364	     40.83975464	     -8.60496146	      4.34876360	     26.20214501	      0.45731370	     -3.53788725	      4.45421316	      4.20531843	     28.98330035	      0.50585402	     -2.65023358	    -13.53360328	    -11.80623255	     -3.03272162	    -12.54270048	      0.00000000	      2.95600942	     -6.22506484	      0.00000000
      1.12666667	     -9.66944868	      6.68026700	      8.40662947	     -1.04383799	      0.78992446	      0.38608576	     40.61919847	     -8.00649773	      4.47271099	     27.78075206	      0.48486559	     -3.50155543	      3.85892162	      3.63747601	     30.59807486	      0.53403715	     -2.85607664	    -12.96219261	    -11.76361060	     -3.09677137	    -12.84163349	      0.00000000	      1.77111077	     -6.16177944	      0.00000000
      1.13333333	     -9.94570310	      5.83209309	      8.56954348	     -1.03439055	      0.78913655	      0.38680250	     40.84022234	     -7.07329822	      4.47622743	     28.92504356	      0.50483725	     -2.44516840	      2.77702021	      3.14531227	     32.72074829	      0.57108479	     -2.25889845	    -11.95700454	    -11.82937784	     -3.52827207	    -13.92102024	      0.00000000	     -0.00387620	     -6.97534126	      0.00000000
      1.14000000	     -9.69279348	      5.19034386	      8.53517901	     -1.02490803	      0.78897498	      0.38753542	     40.52295931	     -6.23130131	      4.44711761	     30.14218559	      0.52608038	     -2.05157911	      1.84968175	      2.59040932	     34.62668037	      0.60434958	     -2.33675566	    -11.07286927	    -11.77629581	     -3.24020493	    -14.23541049	      0.00000000	     -1.44613021	     -7.05054845	      0.00000000
      1.14666667	     -9.48427790	      4.55199328	      8.52347465	     -1.01560081	      0.78884191	      0.38826897	     40.20458174	     -5.41363313	      4.37880167	     31.23454783	      0.54514570	     -1.51708259	      0.93416095	      2.09684747	     36.62433170	      0.63921517	     -2.38966998	    -10.21467448	    -11.72211861	     -2.93348253	    -14.54721946	      0.00000000	     -2.85205651	     -7.22582056	      0.00000000
      1.15333333	     -9.70201391	      3.41955440	      8.71338018	     -1.00635705	      0.78837572	      0.38878445	     40.13457729	     -4.28359249	      4.07104286	     31.88390636	      0.55647914	     -0.24017275	     -0.47895200	      1.73901561	     38.94397926	      0.67970066	     -1.83338647	     -8.82383943	    -11.82104363	     -2.61655075	    -14.98965026	      0.00000000	     -4.59390586	     -8.08984682	      0.00000000
      1.16000000	     -9.71151470	      2.60776146	      8.77704623	     -0.99723757	      0.78821638	      0.38927674	     39.89865808	     -3.39503385	      3.82899539	     32.65314279	      0.56990485	      0.71889467	     -1.52777378	      1.43614046	     41.05595056	      0.71656151	     -1.61682582	     -7.77058146	    -11.80383530	     -2.05825917	    -15.33733657	      0.00000000	     -6.12679525	     -8.53478608	      0.00000000
      1.16666667	     -9.98822021	      1.79821014	      8.92190296	     -0.98838811	      0.78786056	      0.38972945	     39.91927003	     -2.60730965	      3.49427040	     33.32322799	      0.58160005	      2.10134988	     -2.51063845	      1.29126799	     43.27912734	      0.75536327	     -1.09638536	     -6.80071909	    -11.85768751	     -1.59479545	    -15.61952680	      0.00000000	     -7.64464852	     -9.43111281	      0.00000000
      1.17333333	     -9.70803616	      1.51011219	      8.82513326	     -0.97967668	      0.78834338	      0.39031578	     39.31695680	     -2.09707753	      3.52948150	     34.02209834	      0.59379763	      2.66004718	     -2.94730851	      1.10093452	     45.11484086	      0.78740251	     -1.43626935	     -6.35702246	    -11.62821008	     -1.11823577	    -15.78879074	      0.00000000	     -8.45702087	     -9.45024472	      0.00000000
      1.18000000	     -9.92189824	      0.06822505	      9.02410053	     -0.97069297	      0.78828136	      0.39051923	     39.00761351	     -0.79629406	      2.67921874	     34.05996545	      0.59445854	      4.20086136	     -4.67566591	      0.98217842	     47.36241303	      0.82663005	     -0.80136245	     -4.53916828	    -11.71661089	      0.01654071	    -15.84135902	      0.00000000	     -9.80059685	    -10.25500751	      0.00000000
      1.18666667	    -10.06538067	     -0.72590885	      9.10674231	     -0.96209494	      0.78845663	      0.39077705	     38.69798843	     -0.03820157	      2.18682938	     34.32005929	      0.59899803	      5.52266774	     -5.59578314	      0.98802306	     49.35805734	      0.86146061	     -0.48142395	     -3.52995494	    -11.65941598	      0.76772542	    -15.87059141	      0.00000000	    -10.60850868	    -10.86923072	      0.00000000
      1.19333333	    -10.23988006	     -1.43921323	      9.17782070	     -0.95362576	      0.78876252	      0.39097329	     38.37009252	      0.63290730	      1.70279132	     34.48734126	      0.60191766	      6.89479224	     -6.39080311	      1.03013462	     51.25316636	      0.89453651	     -0.15135256	     -2.62337163	    -11.60463438	      1.47573450	    -15.83516724	      0.00000000	    -11.15667951	    -11.44806321	      0.00000000
      1.20000000	    -10.36374107	     -2.09370279	      9.21019472	     -0.94523900	      0.78926168	      0.39108864	     37.92622972	      1.26116362	      1.24570290	     34.53638020	      0.60277355	      8.20378091	     -7.07761038	      1.12148711	     53.01876212	      0.92535196	      0.10604347	     -1.75797077	    -11.46460278	      2.24743602	    -15.78889542	      0.00000000	    -11.42343804	    -11.95712257	      0.00000000
      1.20666667	    -10.56183396	     -2.69217473	      9.25658528	     -0.93695767	      0.78980065	      0.39119319	     37.51804027	      1.80973871	      0.76793007	     34.49876997	      0.60211712	      9.62055033	     -7.67510746	      1.23855862	     54.68932691	      0.95450882	      0.42550004	     -0.99262700	    -11.36690982	      2.90968442	    -15.64941389	      0.00000000	    -11.43409230	    -12.40700810	      0.00000000
      1.21333333	    -10.70871121	     -3.19227818	      9.26367480	     -0.92876386	      0.79054761	      0.39124326	     36.99744882	      2.29050226	      0.35859177	     34.35782492	      0.59965717	     10.95732889	     -8.13012639	      1.35576518	     56.20567483	      0.98097408	      0.65752295	     -0.32298534	    -11.19398553	      3.57539836	    -15.51657592	      0.00000000	    -11.16323469	    -12.80006475	      0.00000000
